<svg id="Ebene_1" data-name="Ebene 1" xmlns="http://www.w3.org/2000/svg" viewBox="0 0 1337 495.7"><defs><style>.cls-1{fill:#2ed265;}.cls-2{fill:#f2a13f;}.cls-3{fill:none;stroke:#34e08f;stroke-linecap:round;stroke-miterlimit:10;stroke-width:60px;}.cls-4{fill:#34e08f;}</style></defs><path class="cls-1" d="M971,331.1V726.5c-28.34-21-57-49.33-86-81.35V346.69a106.63,106.63,0,0,1,37.5-16.19A110.58,110.58,0,0,1,971,331.1Z" transform="translate(-369 -298.09)"/><path class="cls-2" d="M1139,455.19V732.91c-15.76,13.93-33.65,23.93-54.5,28.59a97,97,0,0,1-31.5,1.73V374C1081.19,395.87,1109.77,424,1139,455.19Z" transform="translate(-369 -298.09)"/><path class="cls-1" d="M677,408.84V722.1c-19.67,19-42.69,32.29-70.5,37.4q-8,1.47-15.5,2.18V345.37C619.84,359.81,648.51,382,677,408.84Z" transform="translate(-369 -298.09)"/><path class="cls-1" d="M1439,336.72V733.14c-29.64-14.6-58.26-34.19-86-56.89V369.58a154.36,154.36,0,0,1,60.5-29.08A159.7,159.7,0,0,1,1439,336.72Z" transform="translate(-369 -298.09)"/><path class="cls-3" d="M437.5,683.5" transform="translate(-369 -298.09)"/><path class="cls-4" d="M1509.91,775.26a30,30,0,0,1-40.17,13.65c-5.64-2.78-11.82-6.12-18.53-9.93s-13.88-8.08-21.33-12.65c-14.89-9.14-30.82-19.47-45.59-29.56-9.85-6.73-19.17-13.35-27.37-19.49-4.69-3.51-9-6.87-12.92-10.06-21.21-17.35-44.06-38.05-66.47-59.67-11.2-10.81-22.28-21.83-33-32.77-8.58-8.79-16.89-17.51-24.79-26-1.93-2.08-3.85-4.15-5.73-6.21-16.86-18.39-33.35-36.84-49.5-54.83s-32-35.5-47.44-52c-14.36-15.31-28.45-29.75-42.22-42.89a524.68,524.68,0,0,0-40.28-35.1,264.82,264.82,0,0,0-36.91-24.4,158.49,158.49,0,0,0-17.19-8,116.14,116.14,0,0,0-16.17-5A87.68,87.68,0,0,0,945,358.09a76.6,76.6,0,0,0-16.18,1.73,74.77,74.77,0,0,0-14,4.52,81.28,81.28,0,0,0-13,7.2h0a110.41,110.41,0,0,0-19.59,17.28,186.06,186.06,0,0,0-18.59,24.57C851.6,432,840.47,455,829.86,480.2c-7.08,16.82-14,34.64-20.88,52.9h0q-4.28,11.24-8.58,22.66c-7.88,20.81-16,41.9-24.73,62.52-12,28.16-25.19,55.48-41.23,80.19-10.71,16.47-22.7,31.79-36.62,45.22a178.25,178.25,0,0,1-38.71,28.66A158.3,158.3,0,0,1,611.92,789q-9.23,1.69-18.06,2.53h0q-9,.87-17.65.86a160.73,160.73,0,0,1-42.93-5.68,164.83,164.83,0,0,1-36.92-15.29,30,30,0,0,1,25.46-54.17,31.83,31.83,0,0,1,3.84,1.81,104.77,104.77,0,0,0,23.53,9.8,101.08,101.08,0,0,0,27,3.53c3.8,0,7.77-.19,11.95-.58s8.4-1,12.93-1.83a98.21,98.21,0,0,0,29.42-10.37,118.54,118.54,0,0,0,25.68-19.12,183.06,183.06,0,0,0,21.26-24.91,299,299,0,0,0,19.48-31.36c12.43-22.76,23.7-48.91,34.53-76.35,7-17.66,13.78-35.86,20.68-54.08l.75-2c9.19-24.24,18.57-48.48,28.93-71.61s21.7-45.17,35.15-65.05a221.71,221.71,0,0,1,30.29-36.38,160.86,160.86,0,0,1,21-17,140.2,140.2,0,0,1,22.66-12.51,134.62,134.62,0,0,1,25.29-8.15A136.56,136.56,0,0,1,945,298.09a140.8,140.8,0,0,1,16.46,1,154.56,154.56,0,0,1,16.16,2.79,194.49,194.49,0,0,1,48.29,18.53,322.43,322.43,0,0,1,45.43,29.91h0a584.6,584.6,0,0,1,44.94,39.11q11.16,10.63,22.28,22t22.28,23.25c16,17.09,32.11,34.91,48.32,53S1241.76,524,1258.28,542c18.24,19.89,39.41,41.63,60.91,62.36s43.35,40.5,62.8,56.41h0c4,3.26,9.1,7.2,14.92,11.47s12.35,8.89,19.24,13.62c13.78,9.47,29,19.39,43.09,28.08,9.39,5.79,18.27,11,25.78,15.21,4.28,2.37,8.12,4.4,11.23,5.93A30,30,0,0,1,1509.91,775.26Z" transform="translate(-369 -298.09)"/><path class="cls-3" d="M399,684c41,31,30,22,30,22" transform="translate(-369 -298.09)"/><line class="cls-3" x1="1299" y1="148.85" x2="1307" y2="154.91"/><polygon class="cls-4" points="235.43 20.45 235.44 20.46 235.44 20.46 235.43 20.45"/><polygon class="cls-4" points="680.87 494.98 680.87 494.98 680.87 494.98 680.87 494.98"/><polygon class="cls-4" points="328.56 88.9 328.56 88.91 328.56 88.91 328.56 88.9"/><polygon class="cls-4" points="680.87 494.98 680.87 494.98 681.28 495.02 680.87 494.98"/><polygon class="cls-4" points="584.16 452.53 584.16 452.53 584.15 452.52 584.16 452.53"/><polygon class="cls-4" points="1159.96 22.6 1159.97 22.61 1159.98 22.61 1159.96 22.6"/><path class="cls-4" d="M1629.63,411.77a30,30,0,0,1-41.76,7.5A405.08,405.08,0,0,0,1549,395.2a281.14,281.14,0,0,0-40-17.91h0a201.66,201.66,0,0,0-29.73-8.11,157.17,157.17,0,0,0-29.09-2.82q-4.62,0-9.2.3a130.88,130.88,0,0,0-20.71,3.07h0a122.31,122.31,0,0,0-25.94,9.18,130.47,130.47,0,0,0-22.94,14.37h0a171.17,171.17,0,0,0-24.1,23.07,259.18,259.18,0,0,0-21.86,29.44c-6.38,9.88-12.48,20.51-18.35,31.69-6.92,13.17-13.54,27.11-20,41.51-5.31,11.89-10.48,24.09-15.63,36.43l-10.1,24.4c-9.63,23.26-19.34,46.6-29.92,69-11.51,24.37-24,47.65-38.94,68.55a224.89,224.89,0,0,1-33.66,38,162,162,0,0,1-31.1,21.76A145.23,145.23,0,0,1,1091,790.78h0a125.94,125.94,0,0,1-27.42,3,133.79,133.79,0,0,1-13.74-.72,146.24,146.24,0,0,1-25.56-5.09,179.13,179.13,0,0,1-24.56-9.23c-16-7.36-31.48-17-46.59-28.13a478.45,478.45,0,0,1-45.66-39c-15-14.37-29.91-30-44.74-46.37-17.56-19.39-35-39.87-52.5-60.72s-34.9-42-52.32-62.81c-17-20.32-34.05-40.24-51-59s-33.82-36.37-50.5-52.06h0a469.45,469.45,0,0,0-40.27-34.19,259.23,259.23,0,0,0-38.6-24.29h0a165.63,165.63,0,0,0-16.91-7.39,130.14,130.14,0,0,0-16.25-4.89,30,30,0,1,1,13.39-58.49,208.19,208.19,0,0,1,46.65,17.13,319,319,0,0,1,47.65,29.88A528.24,528.24,0,0,1,697.56,387c18.27,17.19,36.2,35.93,53.91,55.54s35.17,40,52.45,60.66c17.65,21.05,35.1,42.26,52.33,62.83q7.82,9.33,15.57,18.46c11.93,14,23.74,27.63,35.42,40.52h0c14.15,15.63,28.09,30.22,41.74,43.28a418.65,418.65,0,0,0,39.73,34l.07.06.07,0a223.56,223.56,0,0,0,27.31,17.54,130.08,130.08,0,0,0,24.92,10.44,85.52,85.52,0,0,0,15.05,3,70.67,70.67,0,0,0,7.48.4,65.45,65.45,0,0,0,14.35-1.57,85.31,85.31,0,0,0,21.59-8,101.9,101.9,0,0,0,19.58-13.78,153.35,153.35,0,0,0,18.61-19.95,249.92,249.92,0,0,0,17.56-25.71c11.38-18.86,22-40.95,32.41-64.69,6.93-15.83,13.77-32.4,20.73-49.26,8.65-20.91,17.49-42.26,27-63.29,6.74-14.81,13.83-29.46,21.53-43.68q4.82-9,10-17.69a362,362,0,0,1,25.43-37.55,242.13,242.13,0,0,1,42.15-42.73h0A190.88,190.88,0,0,1,1368.06,325a181,181,0,0,1,38.65-13.68h0q7.56-1.77,15.14-2.88t15.14-1.61q6.62-.45,13.2-.44a216.86,216.86,0,0,1,40.21,3.86A261.09,261.09,0,0,1,1529,320.7a341.18,341.18,0,0,1,48.5,21.69A463.2,463.2,0,0,1,1622.13,370,30,30,0,0,1,1629.63,411.77Z" transform="translate(-369 -298.09)"/><polygon class="cls-4" points="965.6 47.8 965.6 47.8 965.61 47.79 965.6 47.8"/><polygon class="cls-4" points="1037.71 13.19 1037.72 13.19 1037.72 13.19 1037.71 13.19"/></svg>